<?xml version="1.0" encoding="UTF-8"?>
<svg version="1.1" xmlns="http://www.w3.org/2000/svg" width="1536" height="1024">
<path d="M0 0 C506.88 0 1013.76 0 1536 0 C1536 337.92 1536 675.84 1536 1024 C1029.12 1024 522.24 1024 0 1024 C0 686.08 0 348.16 0 0 Z " fill="#FDFDFD" transform="translate(0,0)"/>
<path d="M0 0 C3.90391777 1.46358703 7.80019601 2.69651738 11.828125 3.76953125 C12.22631429 21.24561675 10.34695363 37.37278266 6.390625 54.39453125 C6.16401688 55.37406265 6.16401688 55.37406265 5.93283081 56.37338257 C4.29902993 63.37577977 2.51183874 70.09836784 -0.171875 76.76953125 C-0.701383 78.45432943 -1.22272864 80.14172311 -1.734375 81.83203125 C-11.93752066 112.59724145 -28.61360859 141.61470661 -50.171875 165.76953125 C-52.50090072 168.60882864 -54.80431034 171.46701715 -57.1015625 174.33203125 C-59.33287516 176.95908616 -61.71202932 179.3563915 -64.171875 181.76953125 C-64.78289062 182.40375 -65.39390625 183.03796875 -66.0234375 183.69140625 C-77.55958708 195.58329613 -91.37857394 205.56860303 -105.296875 214.51953125 C-106.31007813 215.174375 -107.32328125 215.82921875 -108.3671875 216.50390625 C-111.71770709 218.01583988 -112.7567429 218.03726968 -116.171875 216.76953125 C-118.62055413 215.47732991 -120.9481602 214.15911135 -123.296875 212.70703125 C-123.95776123 212.30363525 -124.61864746 211.90023926 -125.29956055 211.48461914 C-131.14644498 207.87145548 -136.7234341 203.96063963 -142.171875 199.76953125 C-143.39777344 198.83367187 -143.39777344 198.83367187 -144.6484375 197.87890625 C-160.40348872 185.57496149 -176.42587694 171.00120573 -188.171875 154.76953125 C-188.61982422 154.1549707 -189.06777344 153.54041016 -189.52929688 152.90722656 C-215.27749094 117.46579169 -233.1775658 78.17595753 -240.79736328 34.89550781 C-241.13418876 32.98346329 -241.49342924 31.07539976 -241.85546875 29.16796875 C-243.30017386 20.97798527 -243.37830145 13.06099362 -243.171875 4.76953125 C-242.37305908 4.4907312 -242.37305908 4.4907312 -241.55810547 4.20629883 C-239.05418311 3.33205436 -236.5505296 2.45704223 -234.046875 1.58203125 C-232.79197266 1.14407227 -232.79197266 1.14407227 -231.51171875 0.69726562 C-230.65449219 0.39755859 -229.79726563 0.09785156 -228.9140625 -0.2109375 C-228.00140625 -0.52925537 -227.08875 -0.84757324 -226.1484375 -1.17553711 C-224.04396533 -1.92138884 -221.94550774 -2.68431481 -219.8515625 -3.45922852 C-211.80157072 -6.41901553 -203.76577114 -8.81465603 -195.421875 -10.79296875 C-194.17615723 -11.09033936 -192.93043945 -11.38770996 -191.64697266 -11.6940918 C-180.17566748 -14.35756596 -168.66183038 -16.32204936 -156.98925781 -17.85595703 C-154.54223546 -18.18123713 -152.10416206 -18.54134643 -149.6640625 -18.9140625 C-100.37059761 -25.86192075 -46.26453114 -17.46364122 0 0 Z " fill="#0E73D0" transform="translate(531.171875,393.23046875)"/>
<path d="M0 0 C1.84028333 2.16520836 3.422103 4.22292301 5 6.5625 C5.43425293 7.18930664 5.86850586 7.81611328 6.31591797 8.46191406 C15 21.15077539 15 21.15077539 15 25 C15.99 25 16.98 25 18 25 C17.95875 23.88625 17.9175 22.7725 17.875 21.625 C18 18 18 18 20 16 C25.99879395 15.05925227 30.68497165 16.28594297 36 19 C36.25 21.8125 36.25 21.8125 36 25 C33.15685578 27.73784259 30.58774768 28.53104316 26.75 29.1875 C25.85796875 29.34605469 24.9659375 29.50460937 24.046875 29.66796875 C23.37140625 29.77753906 22.6959375 29.88710938 22 30 C22.83662665 34.35233865 25.10445863 36.68072087 28 40 C31.20182414 44.80273621 30.37193234 50.06362432 30.37060547 55.71411133 C30.37496393 57.79527537 30.41124729 59.87429135 30.44921875 61.95507812 C30.45509049 63.2890553 30.45905749 64.62304248 30.4609375 65.95703125 C30.46915527 67.16335205 30.47737305 68.36967285 30.48583984 69.61254883 C29.90209659 73.68261801 28.59754781 75.84457578 26 79 C25.01 79.33 24.02 79.66 23 80 C23.02320313 80.69867188 23.04640625 81.39734375 23.0703125 82.1171875 C23.08835937 83.02726562 23.10640625 83.93734375 23.125 84.875 C23.14820313 85.77992188 23.17140625 86.68484375 23.1953125 87.6171875 C23 90 23 90 21 92 C19.06054688 92.25878906 19.06054688 92.25878906 16.71875 92.265625 C15.87699219 92.26820313 15.03523437 92.27078125 14.16796875 92.2734375 C12.84732422 92.26183594 12.84732422 92.26183594 11.5 92.25 C10.61957031 92.25773438 9.73914063 92.26546875 8.83203125 92.2734375 C7.99027344 92.27085937 7.14851562 92.26828125 6.28125 92.265625 C5.50845703 92.26336914 4.73566406 92.26111328 3.93945312 92.25878906 C2 92 2 92 0 90 C0 88.02 0 86.04 0 84 C-30.69 84 -61.38 84 -93 84 C-93 85.98 -93 87.96 -93 90 C-95.88325223 92.88325223 -98.24449465 92.29074451 -102.1875 92.32226562 C-103.115625 92.31904297 -104.04375 92.31582031 -105 92.3125 C-105.928125 92.32861328 -106.85625 92.34472656 -107.8125 92.36132812 C-108.699375 92.36197266 -109.58625 92.36261719 -110.5 92.36328125 C-111.72203125 92.36775269 -111.72203125 92.36775269 -112.96875 92.37231445 C-113.6390625 92.24945068 -114.309375 92.12658691 -115 92 C-117.05842943 88.91235585 -117.19795157 88.17821255 -117.3125 84.6875 C-117.60993075 81.21373335 -118.10478826 79.4211993 -120.5 76.875 C-125.36664518 71.27835804 -124.27421265 62.68633324 -124.375 55.5625 C-124.43107422 54.06493164 -124.43107422 54.06493164 -124.48828125 52.53710938 C-124.57030464 45.60613299 -123.32462761 41.41730123 -119 36 C-118.236875 35.01 -117.47375 34.02 -116.6875 33 C-116.130625 32.34 -115.57375 31.68 -115 31 C-117.13306549 28.86693451 -121.44419849 29.114958 -124.3359375 28.6953125 C-127.18539873 27.95161148 -128.26838651 27.34345025 -130 25 C-130.43497972 22.10013523 -130.47183212 20.66056497 -128.75 18.25 C-125.38764169 15.84831549 -121.84409486 15.86308982 -117.8125 15.875 C-116.93207031 15.87242187 -116.05164063 15.86984375 -115.14453125 15.8671875 C-113 16 -113 16 -112 17 C-111.85884839 19.67058851 -111.95752893 22.32432238 -112 25 C-108.37206868 23.79068956 -108.12258796 22.97681563 -106.29296875 19.73828125 C-105.78830078 18.86623047 -105.28363281 17.99417969 -104.76367188 17.09570312 C-103.7241112 15.26004766 -102.68503775 13.42411617 -101.64648438 11.58789062 C-94.50593194 -0.74743633 -94.50593194 -0.74743633 -88.93969727 -2.73608398 C-86.35348395 -3.29682242 -83.82127564 -3.61509241 -81.1875 -3.875 C-80.17776123 -3.98666504 -79.16802246 -4.09833008 -78.12768555 -4.21337891 C-17.48288603 -9.96048779 -17.48288603 -9.96048779 0 0 Z " fill="#F9FBFC" transform="translate(463,424)"/>
<path d="M0 0 C3.90391777 1.46358703 7.80019601 2.69651738 11.828125 3.76953125 C12.22631429 21.24561675 10.34695363 37.37278266 6.390625 54.39453125 C6.16401688 55.37406265 6.16401688 55.37406265 5.93283081 56.37338257 C4.29902993 63.37577977 2.51183874 70.09836784 -0.171875 76.76953125 C-0.701383 78.45432943 -1.22272864 80.14172311 -1.734375 81.83203125 C-11.93752066 112.59724145 -28.61360859 141.61470661 -50.171875 165.76953125 C-52.50090072 168.60882864 -54.80431034 171.46701715 -57.1015625 174.33203125 C-59.33287516 176.95908616 -61.71202932 179.3563915 -64.171875 181.76953125 C-64.78289062 182.40375 -65.39390625 183.03796875 -66.0234375 183.69140625 C-77.55958708 195.58329613 -91.37857394 205.56860303 -105.296875 214.51953125 C-106.31007813 215.174375 -107.32328125 215.82921875 -108.3671875 216.50390625 C-111.71770709 218.01583988 -112.7567429 218.03726968 -116.171875 216.76953125 C-118.62055413 215.47732991 -120.9481602 214.15911135 -123.296875 212.70703125 C-123.95776123 212.30363525 -124.61864746 211.90023926 -125.29956055 211.48461914 C-131.14644498 207.87145548 -136.7234341 203.96063963 -142.171875 199.76953125 C-143.39777344 198.83367187 -143.39777344 198.83367187 -144.6484375 197.87890625 C-160.40348872 185.57496149 -176.42587694 171.00120573 -188.171875 154.76953125 C-188.61982422 154.1549707 -189.06777344 153.54041016 -189.52929688 152.90722656 C-215.27749094 117.46579169 -233.1775658 78.17595753 -240.79736328 34.89550781 C-241.13418876 32.98346329 -241.49342924 31.07539976 -241.85546875 29.16796875 C-243.30017386 20.97798527 -243.37830145 13.06099362 -243.171875 4.76953125 C-242.37305908 4.4907312 -242.37305908 4.4907312 -241.55810547 4.20629883 C-239.05418311 3.33205436 -236.5505296 2.45704223 -234.046875 1.58203125 C-232.79197266 1.14407227 -232.79197266 1.14407227 -231.51171875 0.69726562 C-230.65449219 0.39755859 -229.79726563 0.09785156 -228.9140625 -0.2109375 C-228.00140625 -0.52925537 -227.08875 -0.84757324 -226.1484375 -1.17553711 C-224.04396533 -1.92138884 -221.94550774 -2.68431481 -219.8515625 -3.45922852 C-211.80157072 -6.41901553 -203.76577114 -8.81465603 -195.421875 -10.79296875 C-194.17615723 -11.09033936 -192.93043945 -11.38770996 -191.64697266 -11.6940918 C-180.17566748 -14.35756596 -168.66183038 -16.32204936 -156.98925781 -17.85595703 C-154.54223546 -18.18123713 -152.10416206 -18.54134643 -149.6640625 -18.9140625 C-100.37059761 -25.86192075 -46.26453114 -17.46364122 0 0 Z M-140.171875 -5.23046875 C-141.6152397 -5.0853073 -143.06306368 -4.98222364 -144.51171875 -4.90625 C-166.05929329 -3.54235525 -189.31572252 -0.11286595 -209.171875 8.76953125 C-211.75761665 9.70222394 -214.36832589 10.55114825 -216.984375 11.39453125 C-221.66801742 12.85357774 -221.66801742 12.85357774 -226.171875 14.76953125 C-226.80104466 42.47123308 -219.10805294 72.26654555 -206.171875 96.76953125 C-205.54681719 98.05996243 -204.92725285 99.35306542 -204.3125 100.6484375 C-185.85787319 139.24555745 -155.80159637 171.79406841 -119.046875 193.51953125 C-117.80550781 194.25429688 -117.80550781 194.25429688 -116.5390625 195.00390625 C-114.19258585 195.98928458 -114.19258585 195.98928458 -111.82421875 195.2109375 C-108.35398356 193.32505122 -105.11396983 191.1906328 -101.859375 188.95703125 C-100.52283121 188.0497554 -99.18559803 187.14349424 -97.84765625 186.23828125 C-97.21166504 185.80773437 -96.57567383 185.3771875 -95.92041016 184.93359375 C-93.83290211 183.54386485 -91.70035295 182.24170643 -89.546875 180.95703125 C-86.28584702 178.95402915 -83.81400283 176.55071844 -81.171875 173.76953125 C-79.171875 172.10286458 -77.171875 170.43619792 -75.171875 168.76953125 C-71.50410618 165.19376332 -68.0048521 161.48325625 -64.546875 157.70703125 C-64.06992187 157.19076172 -63.59296875 156.67449219 -63.1015625 156.14257812 C-58.28517296 151.58788818 -58.28517296 151.58788818 -56.171875 145.76953125 C-55.181875 145.43953125 -54.191875 145.10953125 -53.171875 144.76953125 C-51.80185358 143.12346408 -51.80185358 143.12346408 -50.546875 141.01953125 C-48.67790897 138.0886527 -46.78490172 135.19165176 -44.78125 132.3515625 C-44.16564209 131.47806152 -44.16564209 131.47806152 -43.53759766 130.58691406 C-42.7172725 129.42664306 -41.89407388 128.26839774 -41.06787109 127.11230469 C-38.85586011 124.22107303 -38.85586011 124.22107303 -38.171875 120.76953125 C-37.511875 120.76953125 -36.851875 120.76953125 -36.171875 120.76953125 C-35.511875 119.69703125 -34.851875 118.62453125 -34.171875 117.51953125 C-33.800625 116.91625 -33.429375 116.31296875 -33.046875 115.69140625 C-31.89563477 113.5147374 -31.89563477 113.5147374 -32.171875 109.76953125 C-31.511875 109.76953125 -30.851875 109.76953125 -30.171875 109.76953125 C-28.49620688 106.10690489 -26.83178178 102.43932516 -25.171875 98.76953125 C-24.65625 97.63515625 -24.140625 96.50078125 -23.609375 95.33203125 C-21.94028613 91.19559361 -20.59007746 86.9916212 -19.21484375 82.75 C-18.29770841 80.12912261 -17.25258047 77.70360353 -16.046875 75.20703125 C-14.03394279 70.90488201 -13.26180017 66.63631744 -12.56640625 61.95703125 C-12.171875 59.76953125 -12.171875 59.76953125 -11.171875 58.76953125 C-10.81583534 57.1626779 -10.51318744 55.54391247 -10.234375 53.921875 C-10.06164062 52.92349609 -9.88890625 51.92511719 -9.7109375 50.89648438 C-9.44410156 49.31770508 -9.44410156 49.31770508 -9.171875 47.70703125 C-8.99398437 46.68158203 -8.81609375 45.65613281 -8.6328125 44.59960938 C-7.23519488 36.44857824 -6.02958447 28.56774592 -6.109375 20.26953125 C-6.11839844 19.04234375 -6.12742187 17.81515625 -6.13671875 16.55078125 C-6.14832031 15.63296875 -6.15992188 14.71515625 -6.171875 13.76953125 C-17.49547218 9.2529055 -28.94638994 5.66707721 -40.70336914 2.45214844 C-42.6333865 1.91843975 -44.55363828 1.34938601 -46.46948242 0.7668457 C-50.33351611 -0.27401006 -54.16907688 -0.93841909 -58.125 -1.484375 C-58.86586853 -1.59015366 -59.60673706 -1.69593231 -60.37005615 -1.80491638 C-61.92947875 -2.02650052 -63.4892406 -2.24570904 -65.04931641 -2.46264648 C-67.4022316 -2.79023387 -69.75387967 -3.12592962 -72.10546875 -3.46289062 C-76.45721557 -4.08161967 -80.81267534 -4.66680337 -85.171875 -5.23046875 C-86.10322266 -5.35260742 -87.03457031 -5.47474609 -87.99414062 -5.60058594 C-96.73942511 -6.57036689 -105.5671512 -6.38084844 -114.35400391 -6.36083984 C-117.19308685 -6.35542832 -120.03201529 -6.36083828 -122.87109375 -6.3671875 C-124.67968785 -6.36652758 -126.48828185 -6.36524819 -128.296875 -6.36328125 C-129.1437085 -6.36530548 -129.99054199 -6.36732971 -130.86303711 -6.36941528 C-134.21547694 -6.35595564 -136.96942067 -6.29795353 -140.171875 -5.23046875 Z " fill="#0B2D5D" transform="translate(531.171875,393.23046875)"/>
<path d="M0 0 C5.28 0 10.56 0 16 0 C16 26.4 16 52.8 16 80 C10.72 80 5.44 80 0 80 C-0.33 78.35 -0.66 76.7 -1 75 C-1.7425 75.61875 -2.485 76.2375 -3.25 76.875 C-9.96900501 82.06695842 -16.80250218 81.83700767 -25 81 C-31.88579832 78.57644863 -36.21830727 73.11796228 -39.75 66.9375 C-43.3698831 58.4307747 -43.4835205 46.7821116 -41.19921875 37.87890625 C-38.34152495 31.5841237 -33.57369953 26.99761595 -28 23 C-21.29910292 20.76636764 -12.64513475 20.70687615 -6.25 23.875 C-3 26 -3 26 -1 28 C-0.67 18.76 -0.34 9.52 0 0 Z " fill="#158CE3" transform="translate(1236,440)"/>
<path d="M0 0 C4.61366763 3.4517069 8.78570499 7.18356417 12 12 C12 12.66 12 13.32 12 14 C10.04414675 15.00484204 8.08523763 16.00373805 6.125 17 C5.03445313 17.556875 3.94390625 18.11375 2.8203125 18.6875 C0 20 0 20 -2 20 C-2.495 19.2575 -2.99 18.515 -3.5 17.75 C-7.5702247 13.27275284 -12.67356568 11.44484263 -18.62890625 10.6484375 C-25.44718419 10.41942664 -29.79197023 12.09045847 -35.625 15.5625 C-41.59909411 21.69380711 -43.51836984 28.10195603 -43.625 36.5 C-43.50620078 43.46955402 -42.61975485 49.48609905 -38 55 C-31.30958931 60.78565764 -25.59428588 62.33575115 -16.8984375 62.30078125 C-13.0801272 61.9045415 -10.15672961 60.63496949 -6.77734375 58.875 C-5 58 -5 58 -3 58 C-3 54.04 -3 50.08 -3 46 C-9.6 46 -16.2 46 -23 46 C-23 41.38 -23 36.76 -23 32 C-11.45 32 0.1 32 12 32 C12.165 37.135625 12.33 42.27125 12.5 47.5625 C12.57283203 49.16939697 12.64566406 50.77629395 12.72070312 52.43188477 C12.87964489 62.62915279 12.87964489 62.62915279 10.40332031 66.48828125 C6.6981148 69.85890299 2.42508365 72.10042636 -2.25 73.875 C-3.74273438 74.45894531 -3.74273438 74.45894531 -5.265625 75.0546875 C-14.82225783 78.35855199 -28.14019626 78.97802151 -37.6875 75.4375 C-48.55414633 69.95626393 -55.34762464 62.32565608 -59.375 50.875 C-62.84575915 38.36276743 -62.11061858 25.1649391 -55.71484375 13.6953125 C-49.16993544 4.32460812 -40.7385694 -1.86970199 -29.64453125 -4.57421875 C-19.05276905 -6.2795394 -9.33714465 -5.57022792 0 0 Z " fill="#1389E3" transform="translate(1010,444)"/>
<path d="M0 0 C5.94 0 11.88 0 18 0 C16.0334593 6.01799421 13.92863961 11.94676627 11.63671875 17.84765625 C11.16502007 19.07010292 11.16502007 19.07010292 10.68379211 20.31724548 C9.68695911 22.89974805 8.68739961 25.48118341 7.6875 28.0625 C6.37782839 31.44880292 5.06935485 34.83556681 3.76171875 38.22265625 C3.44231323 39.04980133 3.12290771 39.87694641 2.79382324 40.72915649 C-0.18930873 48.4668817 -3.10293641 56.22972279 -6 64 C-6.63236793 65.68766665 -7.26509966 67.37519709 -7.8984375 69.0625 C-8.12708496 69.67222656 -8.35573242 70.28195312 -8.59130859 70.91015625 C-9.72753906 73.94010417 -10.86376953 76.97005208 -12 80 C-18.6 80 -25.2 80 -32 80 C-34.75 72.125 -34.75 72.125 -35.58886719 69.71142578 C-37.23984258 65.01013101 -39.0301629 60.38287141 -40.89746094 55.76367188 C-43.0901542 50.26737255 -45.15906087 44.72311556 -47.25 39.1875 C-48.21966154 36.62224804 -49.18978847 34.05717239 -50.16015625 31.4921875 C-50.52008415 30.54044395 -50.52008415 30.54044395 -50.88728333 29.56947327 C-52.41104148 25.54404579 -53.94851365 21.52413643 -55.49609375 17.5078125 C-55.86895508 16.5381958 -56.24181641 15.5685791 -56.62597656 14.56958008 C-57.31926692 12.76890665 -58.01511877 10.96921677 -58.71386719 9.1706543 C-59.0184082 8.37828369 -59.32294922 7.58591309 -59.63671875 6.76953125 C-59.90186279 6.08479736 -60.16700684 5.40006348 -60.44018555 4.69458008 C-61 3 -61 3 -61 1 C-55.06 1 -49.12 1 -43 1 C-42.38253906 2.7428125 -41.76507812 4.485625 -41.12890625 6.28125 C-36.49540148 19.32449225 -31.81313174 32.33956724 -26.86938477 45.26953125 C-25.01874196 50.13959891 -23.33401425 54.96270661 -22 60 C-19.72785207 53.97356456 -17.50899472 47.92937777 -15.3125 41.875 C-14.96872314 40.92866699 -14.62494629 39.98233398 -14.27075195 39.00732422 C-13.18010965 36.00502488 -12.08998843 33.00253678 -11 30 C-9.56297342 26.04149453 -8.1254012 22.08318784 -6.6875 18.125 C-6.36241455 17.22894043 -6.0373291 16.33288086 -5.70239258 15.40966797 C-5.39197021 14.55518066 -5.08154785 13.70069336 -4.76171875 12.8203125 C-4.49319092 12.08055176 -4.22466309 11.34079102 -3.94799805 10.57861328 C-2.64927599 7.04600901 -1.32154822 3.52412858 0 0 Z " fill="#0D2E59" transform="translate(631,440)"/>
<path d="M0 0 C0.93489258 0.06727295 1.86978516 0.1345459 2.83300781 0.20385742 C8.06227047 0.85334871 10.5597973 2.13305611 13.87890625 6.2890625 C14.95137185 7.85875071 15.99450615 9.44909192 17 11.0625 C17.39429199 11.66553955 17.78858398 12.2685791 18.19482422 12.88989258 C19.15339463 14.39933124 20.04797101 15.94887122 20.9375 17.5 C21.52402344 18.50933594 22.11054688 19.51867187 22.71484375 20.55859375 C24 23.0625 24 23.0625 24 25.0625 C-12.63 25.0625 -49.26 25.0625 -87 25.0625 C-86.19250396 21.02501978 -85.85190556 19.39755173 -83.8203125 16.1796875 C-83.38589844 15.48746094 -82.95148438 14.79523438 -82.50390625 14.08203125 C-82.04886719 13.37433594 -81.59382813 12.66664063 -81.125 11.9375 C-80.67769531 11.22207031 -80.23039062 10.50664062 -79.76953125 9.76953125 C-75.71268119 3.36712776 -75.71268119 3.36712776 -73 1.0625 C-70.35200546 0.47579979 -67.93704283 0.11616627 -65.25 -0.125 C-64.40727539 -0.20322998 -63.56455078 -0.28145996 -62.69628906 -0.36206055 C-42.03687904 -1.98348121 -20.63006723 -2.01987652 0 0 Z " fill="#126AC4" transform="translate(448,426.9375)"/>
<path d="M0 0 C5.28 0 10.56 0 16 0 C16.495 14.355 16.495 14.355 17 29 C19.31 27.02 21.62 25.04 24 23 C26.6875 22.125 26.6875 22.125 30 22 C31.34964844 21.87431641 31.34964844 21.87431641 32.7265625 21.74609375 C39.35267185 21.35188218 43.57088801 22.16196909 49.0625 25.90625 C54.7319235 32.03288507 55.57183917 38.32073899 55.390625 46.40625 C55.38496521 47.3715564 55.37930542 48.33686279 55.37347412 49.3314209 C55.35123963 52.38813717 55.30106775 55.44364328 55.25 58.5 C55.22991828 60.5833163 55.21167045 62.66665113 55.1953125 64.75 C55.15141725 69.8337934 55.08248003 74.91669215 55 80 C49.72 80 44.44 80 39 80 C38.99589111 78.80922852 38.99178223 77.61845703 38.98754883 76.39160156 C38.96576529 71.97058924 38.91148405 67.55046792 38.84741211 63.12988281 C38.82422524 61.21720931 38.80983477 59.30440801 38.80444336 57.39160156 C38.79515863 54.64046526 38.75418073 51.89134088 38.70703125 49.140625 C38.7109639 48.28631897 38.71489655 47.43201294 38.71894836 46.55181885 C38.60791491 41.47722709 38.60791491 41.47722709 35.59838867 37.4597168 C31.64440619 35.23845764 28.41170354 35.32743539 24 36 C20.36532921 37.62400184 19.22591304 38.66113044 17 42 C16.75878651 44.89659349 16.62700558 47.7053355 16.5859375 50.60546875 C16.56657135 51.44467361 16.5472052 52.28387848 16.5272522 53.14851379 C16.46748787 55.82807258 16.42108388 58.5076744 16.375 61.1875 C16.3368173 63.00457599 16.29776539 64.82163394 16.2578125 66.63867188 C16.16178897 71.09230132 16.07774641 75.54601551 16 80 C10.72 80 5.44 80 0 80 C0 53.6 0 27.2 0 0 Z " fill="#12325C" transform="translate(710,440)"/>
<path d="M0 0 C2.23306206 1.18690863 3.98938318 2.39363839 5.85546875 4.09375 C6.37109375 4.55136719 6.88671875 5.00898438 7.41796875 5.48046875 C13.18402615 11.45947714 13.14978458 19.62043485 13.05078125 27.40625 C13.04795135 28.26057617 13.04512146 29.11490234 13.04220581 29.99511719 C13.03110754 32.69481053 13.00602302 35.39415877 12.98046875 38.09375 C12.97042554 39.93619309 12.96130205 41.77864143 12.953125 43.62109375 C12.93120225 48.11210994 12.89674521 52.60287168 12.85546875 57.09375 C7.90546875 57.09375 2.95546875 57.09375 -2.14453125 57.09375 C-2.47453125 55.44375 -2.80453125 53.79375 -3.14453125 52.09375 C-3.86640625 52.7125 -4.58828125 53.33125 -5.33203125 53.96875 C-11.98306311 58.99397407 -19.05713817 59.09794958 -27.14453125 58.09375 C-32.2758351 56.12795472 -35.92250816 53.08418377 -38.70703125 48.34375 C-40.64789137 43.67495285 -40.96325548 39.06457571 -40.14453125 34.09375 C-37.75214114 29.21695478 -34.4288417 26.28419396 -30.14453125 23.09375 C-26.22769261 21.78813712 -22.47770477 21.87000835 -18.39453125 21.84375 C-17.60820313 21.823125 -16.821875 21.8025 -16.01171875 21.78125 C-10.62320751 21.74544594 -6.95376395 22.65055692 -2.14453125 25.09375 C-2.39874757 19.44584028 -2.39874757 19.44584028 -5.01953125 14.65625 C-9.78875023 11.14947134 -15.47075398 11.49691824 -21.14453125 12.09375 C-23.40830095 12.95203355 -25.33847289 13.94224933 -27.390625 15.21875 C-29.14453125 16.09375 -29.14453125 16.09375 -33.14453125 16.09375 C-37.14453125 11.09375 -37.14453125 11.09375 -37.14453125 7.09375 C-34.84375 5.3046875 -34.84375 5.3046875 -31.83203125 3.46875 C-30.84589844 2.85773438 -29.85976562 2.24671875 -28.84375 1.6171875 C-21.0202951 -2.79836592 -8.50279574 -2.45049517 0 0 Z " fill="#1589E1" transform="translate(1133.14453125,462.90625)"/>
<path d="M0 0 C0.77279297 -0.01160156 1.54558594 -0.02320313 2.34179688 -0.03515625 C10.07646752 0.00407285 15.72558405 2.4269602 21.48828125 7.6328125 C28.51400673 15.40818115 28.0625 24.14820269 28.0625 34.375 C14.5325 34.375 1.0025 34.375 -12.9375 34.375 C-10.00225136 42.86929657 -10.00225136 42.86929657 -6.3125 45.4375 C-0.02976702 47.18270361 5.5617961 47.45535969 11.4375 44.375 C12.04335938 44.00375 12.64921875 43.6325 13.2734375 43.25 C15.0625 42.375 15.0625 42.375 19.0625 42.375 C20.765625 43.6875 20.765625 43.6875 22.3125 45.375 C22.83328125 45.931875 23.3540625 46.48875 23.890625 47.0625 C24.27734375 47.495625 24.6640625 47.92875 25.0625 48.375 C23.68990684 51.66642237 22.35989691 53.16919953 19.3125 55 C18.65765625 55.40476562 18.0028125 55.80953125 17.328125 56.2265625 C8.84595492 60.52614526 -1.853017 61.0309036 -11.0234375 58.53515625 C-18.31539112 55.20329437 -23.86019055 49.67421774 -26.8125 42.1875 C-29.61840859 32.67858757 -29.98752055 24.59228814 -25.9375 15.375 C-20.2907692 5.08988318 -11.59970498 -0.1732736 0 0 Z " fill="#0F305D" transform="translate(913.9375,461.625)"/>
<path d="M0 0 C6.44790219 4.23515347 10.31834222 9.98361504 12.1171875 17.390625 C12.1171875 22.010625 12.1171875 26.630625 12.1171875 31.390625 C-1.4128125 31.390625 -14.9428125 31.390625 -28.8828125 31.390625 C-25.36915605 39.41125114 -25.36915605 39.41125114 -18.8828125 43.390625 C-12.37153174 44.34787301 -7.24604743 43.75479705 -1.63671875 40.265625 C0.1171875 39.390625 0.1171875 39.390625 4.1171875 39.390625 C5.8203125 41.140625 5.8203125 41.140625 7.3671875 43.390625 C8.14835938 44.504375 8.14835938 44.504375 8.9453125 45.640625 C9.52539062 46.506875 9.52539062 46.506875 10.1171875 47.390625 C2.61669521 54.49635454 -4.80964026 56.74359614 -15.0078125 56.890625 C-15.7596582 56.90907471 -16.51150391 56.92752441 -17.28613281 56.9465332 C-25.00464186 56.86116643 -31.28987568 53.67284311 -36.8828125 48.390625 C-43.04110414 40.96444978 -44.45531994 31.58096929 -44.1640625 22.17578125 C-43.41435662 14.75161048 -40.01859141 8.75567975 -34.8828125 3.390625 C-25.15479791 -4.0527801 -11.17389048 -5.34239882 0 0 Z " fill="#0E2E5A" transform="translate(688.8828125,464.609375)"/>
<path d="M0 0 C4.95 0 9.9 0 15 0 C15.01458252 1.05912598 15.02916504 2.11825195 15.04418945 3.20947266 C15.10237327 7.15707342 15.17960407 11.10411571 15.26245117 15.05126953 C15.29560636 16.75625512 15.32366737 18.46134798 15.34643555 20.16650391 C15.38015568 22.62448634 15.43247794 25.08149406 15.48828125 27.5390625 C15.49467117 28.29555084 15.5010611 29.05203918 15.50764465 29.83145142 C15.63788973 34.57096741 16.38504101 37.89920751 19 42 C22.99808546 44.66539031 26.29751653 44.84149704 31 44 C34.02409364 41.72872666 34.02409364 41.72872666 36 39 C36.33 38.67 36.66 38.34 37 38 C37.16017166 35.19023482 37.25950534 32.40226404 37.31640625 29.58984375 C37.33718735 28.74780899 37.35796844 27.90577423 37.37937927 27.03822327 C37.44496812 24.33806821 37.50380276 21.63781283 37.5625 18.9375 C37.60567637 17.11131759 37.64929036 15.28514546 37.69335938 13.45898438 C37.80065894 8.97276008 37.90189966 4.4864345 38 0 C42.95 0 47.9 0 53 0 C53 18.81 53 37.62 53 57 C48.05 57 43.1 57 38 57 C37.505 54.03 37.505 54.03 37 51 C36.113125 51.78375 35.22625 52.5675 34.3125 53.375 C28.82372521 58.22554516 23.24361252 58.44443162 16.1640625 58.30859375 C10.98573805 57.80354729 8.10353749 56.27424341 4.5078125 52.38671875 C-0.476488 46.03666359 -0.14393626 39.20924666 -0.09765625 31.4453125 C-0.0962413 30.54376434 -0.09482635 29.64221619 -0.09336853 28.71334839 C-0.0877974 25.850531 -0.07525026 22.98779352 -0.0625 20.125 C-0.05748127 18.17708447 -0.05291901 16.2291677 -0.04882812 14.28125 C-0.03783742 9.52080282 -0.02059277 4.76041493 0 0 Z " fill="#1086E2" transform="translate(1032,463)"/>
<path d="M0 0 C0.76376953 -0.00708984 1.52753906 -0.01417969 2.31445312 -0.02148438 C9.10061069 0.05398188 14.51910665 1.77987578 19.75 6.3125 C20.31332031 6.78429687 20.87664063 7.25609375 21.45703125 7.7421875 C23.26205184 9.8091504 24.04244803 11.86149676 24.9375 14.4375 C23.33717863 15.27819415 21.73208829 16.10981505 20.125 16.9375 C19.23167969 17.4015625 18.33835937 17.865625 17.41796875 18.34375 C14.9375 19.4375 14.9375 19.4375 11.9375 19.4375 C10.5631709 18.14646357 9.22853643 16.8118291 7.9375 15.4375 C4.24814308 13.59282154 -0.02685342 14.08740448 -4.0625 14.4375 C-8.35924021 16.17448009 -10.02979386 18.33802002 -12.0625 22.4375 C-12.80010348 28.1190403 -13.52777328 35.09239835 -10.3125 40.125 C-9.57 40.888125 -8.8275 41.65125 -8.0625 42.4375 C-7.505625 43.05625 -6.94875 43.675 -6.375 44.3125 C-2.68273551 46.10873678 0.91358585 45.97738115 4.9375 45.4375 C7.76798428 44.14532239 9.42582045 43.03445948 11.4375 40.6875 C12.9375 39.4375 12.9375 39.4375 15.1875 39.5625 C18.56283287 40.63646955 21.70812152 41.98111363 24.9375 43.4375 C22.93182233 49.63686735 19.60803668 53.80341131 13.875 56.75 C6.18736819 60.35785889 -3.77391033 61.21017053 -11.87109375 58.49609375 C-18.9564073 54.6846013 -25.23872521 48.84878056 -27.75 41.0625 C-30.03141075 32.79086104 -30.65771262 23.93107985 -27 16 C-20.803943 5.40056541 -12.34480276 -0.32458769 0 0 Z " fill="#0F2F5B" transform="translate(829.0625,461.5625)"/>
<path d="M0 0 C5.28 0 10.56 0 16 0 C16 26.4 16 52.8 16 80 C10.72 80 5.44 80 0 80 C0 53.6 0 27.2 0 0 Z " fill="#14335E" transform="translate(861,440)"/>
<path d="M0 0 C0 4.62 0 9.24 0 14 C-2.66927083 14.13020833 -5.33854167 14.26041667 -8.0078125 14.390625 C-11.94654592 15.19276914 -13.96907258 16.33294927 -17 19 C-17.89368968 21.96457337 -17.83832373 24.8429123 -17.8046875 27.921875 C-17.81839386 28.78186096 -17.83210022 29.64184692 -17.84622192 30.52789307 C-17.88355171 33.26912609 -17.87980535 36.00854868 -17.875 38.75 C-17.89312481 40.61070544 -17.91392682 42.47138686 -17.9375 44.33203125 C-17.98937854 48.88832461 -18.00442877 53.44342747 -18 58 C-23.28 58 -28.56 58 -34 58 C-34 39.19 -34 20.38 -34 1 C-28.72 1 -23.44 1 -18 1 C-17.67 2.98 -17.34 4.96 -17 7 C-16.51789063 6.57847656 -16.03578125 6.15695312 -15.5390625 5.72265625 C-14.90742187 5.17480469 -14.27578125 4.62695312 -13.625 4.0625 C-12.68527344 3.24458984 -12.68527344 3.24458984 -11.7265625 2.41015625 C-7.92478099 -0.69491869 -4.75578891 -0.07670627 0 0 Z " fill="#1689E1" transform="translate(1190,462)"/>
<path d="M0 0 C1.34707843 0.00290688 2.69416446 0.00328794 4.04124451 0.00126648 C6.85683586 0.00447494 9.67085807 0.03133404 12.48608398 0.07641602 C16.08660575 0.133142 19.68517682 0.14126891 23.28607273 0.133008 C26.06497651 0.13020472 28.84344845 0.14784466 31.62223625 0.17214012 C33.59247555 0.18725056 35.5628001 0.18947471 37.53309631 0.19148254 C38.73461838 0.21377426 39.93614044 0.23606598 41.17407227 0.2590332 C42.22853043 0.27126419 43.28298859 0.28349518 44.36940002 0.2960968 C47.97042395 0.95719595 49.62524667 2.31229387 52.24609375 4.82421875 C54.24609375 7.82421875 54.24609375 7.82421875 53.87109375 10.51171875 C53.66484375 11.27484375 53.45859375 12.03796875 53.24609375 12.82421875 C49.39306234 13.72620934 45.82020715 13.95078941 41.86694336 13.95361328 C40.59890366 13.95676544 39.33086395 13.9599176 38.0243988 13.96316528 C36.64907801 13.96137547 35.27375754 13.95932451 33.8984375 13.95703125 C32.48027022 13.95770536 31.06210305 13.95867629 29.64393616 13.95993042 C26.67757055 13.96140185 23.71123513 13.95927035 20.74487305 13.95458984 C16.94630759 13.94888767 13.14781272 13.95217815 9.34924984 13.95816231 C6.42301401 13.96177844 3.49679488 13.96062458 0.57055855 13.95803452 C-0.83005214 13.95736843 -2.23066436 13.95818253 -3.63127327 13.96051407 C-5.58889867 13.96305837 -7.54652941 13.95849177 -9.50415039 13.95361328 C-11.17363487 13.95241989 -11.17363487 13.95241989 -12.87684631 13.95120239 C-15.35043585 13.84202656 -17.39781161 13.54436304 -19.75390625 12.82421875 C-20.22420287 10.23758731 -20.03660294 8.40854429 -18.88832092 6.03507996 C-14.0100276 -0.89003128 -7.88993796 -0.14448899 0 0 Z " fill="#1063C1" transform="translate(398.75390625,482.17578125)"/>
<path d="M0 0 C4.95 0 9.9 0 15 0 C15 18.81 15 37.62 15 57 C10.05 57 5.1 57 0 57 C0 38.19 0 19.38 0 0 Z " fill="#0B2C59" transform="translate(776,463)"/>
<path d="M0 0 C4.23239748 1.56755462 6.78692525 3.05933983 9 7 C9.51765009 9.94167527 9.57064395 12.83030582 9.5625 15.8125 C9.5622583 16.62259521 9.5620166 17.43269043 9.56176758 18.26733398 C9.43195744 22.75329923 9.19194021 26.00500363 6.1875 29.5625 C2.369572 33.04105662 -1.73098518 33.40443095 -6.7109375 33.34765625 C-10.70174842 32.74154333 -12.30051704 30.96284715 -15 28 C-18.02774608 22.02774484 -17.62813256 15.52645049 -17 9 C-16.01020306 6.20407875 -15.12608563 5.18514357 -13 3 C-12.443125 2.38125 -11.88625 1.7625 -11.3125 1.125 C-7.60601604 -0.67815436 -4.03888906 -0.51888505 0 0 Z " fill="#FAFCFD" transform="translate(1227,475)"/>
<path d="M0 0 C5.37521623 0.46741011 10.08945362 1.86523973 15.125 3.75 C15.81464844 3.98976563 16.50429688 4.22953125 17.21484375 4.4765625 C21.90957816 6.21801274 24.70157202 8.22670106 28 12 C27 15 27 15 25.23046875 16.171875 C18.88535178 18.52768025 10.24040788 17.38641365 4 15 C1.59090316 12.89904345 0.09155651 11.02277188 -1 8 C-1.1875 4.3125 -1.1875 4.3125 -1 1 C-0.67 0.67 -0.34 0.34 0 0 Z " fill="#1471CD" transform="translate(348,466)"/>
<path d="M0 0 C0.08153933 1.58246707 0.13943557 3.16616273 0.1875 4.75 C0.23970703 6.07257813 0.23970703 6.07257813 0.29296875 7.421875 C-0.06405725 10.56370376 -0.7573899 11.78651471 -3 14 C-9.46459706 16.88271549 -16.98611932 17.95873189 -24 17 C-27.125 15.625 -27.125 15.625 -29 14 C-29 12 -29 12 -27.7421875 10.66796875 C-22.32389922 6.37187826 -16.71722947 4.22180004 -10.171875 2.078125 C-7.0911603 1.12859973 -7.0911603 1.12859973 -4.765625 -0.203125 C-3 -1 -3 -1 0 0 Z " fill="#0F67C5" transform="translate(484,466)"/>
<path d="M0 0 C2.57104586 0.77883661 4.61521917 1.72811689 7 3 C7.48915663 9.35903614 7.48915663 9.35903614 5.1875 12.375 C1.57887334 15.05569409 -1.55823825 15.2096496 -5.9375 15.3125 C-6.97777344 15.34988281 -8.01804687 15.38726562 -9.08984375 15.42578125 C-12.69674591 14.89805999 -13.81197529 13.85888134 -16 11 C-16.75187617 7.07353555 -16.32320201 5.51266526 -14.1875 2.125 C-9.52849207 -0.98100529 -5.44706557 -0.74596048 0 0 Z " fill="#F5F9FC" transform="translate(1124,495)"/>
<path d="M0 0 C4.23929037 1.67805244 6.09193598 3.8825987 8 8 C8 9.32 8 10.64 8 12 C-0.91 12 -9.82 12 -19 12 C-17.96418824 5.78512943 -17.49754628 4.83936878 -13 1 C-9.07466952 -0.96266524 -4.28932328 -0.34140779 0 0 Z " fill="#EEF1F4" transform="translate(920,474)"/>
<path d="M0 0 C3.06510569 1.28573722 3.84976494 2.26862032 6 5 C6.33 7.31 6.66 9.62 7 12 C-1.91 12 -10.82 12 -20 12 C-19.00590786 7.02953931 -18.28717788 5.57722299 -15 2 C-10.31309514 -1.12460324 -5.48170509 -0.69425289 0 0 Z " fill="#EFF1F4" transform="translate(680,474)"/>
<path d="M0 0 C3.75 0.375 3.75 0.375 6.6875 2.375 C8.96876473 5.69320325 9.56273098 7.48580129 9.30078125 11.4375 C8.25341554 15.12185029 5.91729927 16.49808191 2.75 18.375 C-0.3125 19 -0.3125 19 -3.25 18.375 C-6.75799664 15.80246913 -8.0416522 14.02319316 -9.375 9.875 C-9.25 6.375 -9.25 6.375 -6.875 3.5 C-6.00875 2.79875 -5.1425 2.0975 -4.25 1.375 C-3.25 0.375 -3.25 0.375 0 0 Z " fill="#0F305D" transform="translate(783.25,437.625)"/>
<path d="M0 0 C0.66 0.99 1.32 1.98 2 3 C5.00414569 3.51184645 5.00414569 3.51184645 8.5390625 3.51171875 C10.49199219 3.56489258 10.49199219 3.56489258 12.484375 3.61914062 C13.86457809 3.64224231 15.24478657 3.66502464 16.625 3.6875 C18.01305352 3.72066445 19.40107607 3.7551533 20.7890625 3.79101562 C24.19262707 3.87374115 27.5959259 3.94281257 31 4 C31 4.33 31 4.66 31 5 C20.44 5 9.88 5 -1 5 C-0.67 3.35 -0.34 1.7 0 0 Z " fill="#3784D2" transform="translate(362,447)"/>
<path d="M0 0 C-2.02888958 1.01444479 -4.00415425 2.00158839 -6.125 2.8125 C-8.67232367 4.42580499 -9.1119086 6.18771058 -10 9 C-10.33 9 -10.66 9 -11 9 C-11 6.69 -11 4.38 -11 2 C-3.57142857 -1.57142857 -3.57142857 -1.57142857 0 0 Z " fill="#1794DB" transform="translate(316,406)"/>
<path d="M0 0 C0.66 0.33 1.32 0.66 2 1 C1.525625 1.495 1.05125 1.99 0.5625 2.5 C-1.03674593 5.05879349 -1.2792613 6.26594526 -1.5625 9.1875 C-1.706875 10.445625 -1.85125 11.70375 -2 13 C-2.99 13.495 -2.99 13.495 -4 14 C-4.10815225 12.23050905 -4.18566083 10.45912513 -4.25 8.6875 C-4.29640625 7.70136719 -4.3428125 6.71523438 -4.390625 5.69921875 C-4 3 -4 3 -1.984375 1.14453125 C-1.00210937 0.57798828 -1.00210937 0.57798828 0 0 Z " fill="#2C6FC1" transform="translate(490,501)"/>
<path d="M0 0 C1.134375 0.020625 2.26875 0.04125 3.4375 0.0625 C3.4375 0.3925 3.4375 0.7225 3.4375 1.0625 C1.4575 1.0625 -0.5225 1.0625 -2.5625 1.0625 C-2.81 1.68125 -3.0575 2.3 -3.3125 2.9375 C-4.5625 5.0625 -4.5625 5.0625 -6.625 6.0625 C-8.77530279 6.8920822 -8.77530279 6.8920822 -9.3125 9.1875 C-9.395 9.80625 -9.4775 10.425 -9.5625 11.0625 C-9.875 8.875 -9.875 8.875 -9.5625 6.0625 C-7.125 3.3125 -7.125 3.3125 -4.5625 1.0625 C-3.5625 0.0625 -3.5625 0.0625 0 0 Z " fill="#3B5576" transform="translate(783.5625,437.9375)"/>
<path d="M0 0 C0.66 0.33 1.32 0.66 2 1 C0.87895467 2.31587941 -0.24696965 3.62760353 -1.375 4.9375 C-2.00148438 5.66839844 -2.62796875 6.39929688 -3.2734375 7.15234375 C-5 9 -5 9 -7 10 C-6.42424336 6.64749299 -5.40693737 5.06181371 -2.9375 2.75 C-2.38964844 2.22921875 -1.84179688 1.7084375 -1.27734375 1.171875 C-0.64505859 0.59179688 -0.64505859 0.59179688 0 0 Z " fill="#193863" transform="translate(897,466)"/>
<path d="M0 0 C2.64 0 5.28 0 8 0 C7.67 0.99 7.34 1.98 7 3 C4.69 3 2.38 3 0 3 C0 2.01 0 1.02 0 0 Z " fill="#10ACEE" transform="translate(383,389)"/>
<path d="M0 0 C2.475 0.495 2.475 0.495 5 1 C5 1.99 5 2.98 5 4 C4.01 4.66 3.02 5.32 2 6 C1.34 4.02 0.68 2.04 0 0 Z " fill="#1B85E1" transform="translate(343,453)"/>
</svg>
